<?xml version="1.0" encoding="UTF-8"?>
<svg width="32px" height="32px" viewBox="0 0 32 32" version="1.1" xmlns="http://www.w3.org/2000/svg" xmlns:xlink="http://www.w3.org/1999/xlink">
    <title>Icon / Graphic  / icon-adobexd</title>
    <g id="Icon-/-Graphic--/-icon-adobexd" stroke="none" stroke-width="1" fill="none" fill-rule="evenodd">
        <circle id="Oval" fill="#470137" fill-rule="nonzero" cx="16" cy="16" r="15.4666667"></circle>
        <g id="Outlined_Mnemonics_Logos" transform="translate(6.933333, 8.533333)" fill="#FF61F6" fill-rule="nonzero">
            <g id="Xd">
                <path d="M9.83466667,1.12 L6.63466667,6.4 L10.048,12 C10.0693333,12.0426667 10.08,12.0853333 10.0693333,12.128 C10.0586667,12.1706667 10.016,12.1386667 9.952,12.1493333 L7.50933333,12.1493333 C7.33866667,12.1493333 7.22133333,12.1386667 7.14666667,12.032 C6.92266667,11.584 6.688,11.1466667 6.464,10.6986667 C6.24,10.2613333 5.99466667,9.81333333 5.73866667,9.35466667 C5.48266667,8.896 5.22666667,8.43733333 4.97066667,7.968 L4.94933333,7.968 C4.72533333,8.42666667 4.48,8.88533333 4.23466667,9.344 C3.98933333,9.80266667 3.744,10.2613333 3.50933333,10.7093333 C3.264,11.1573333 3.01866667,11.616 2.77333333,12.0533333 C2.73066667,12.16 2.64533333,12.1706667 2.528,12.1706667 L0.181333333,12.1706667 C0.138666667,12.1706667 0.106666667,12.192 0.106666667,12.1386667 C0.096,12.096 0.106666667,12.0533333 0.128,12.0213333 L3.44533333,6.58133333 L0.213333333,1.10933333 C0.181333333,1.06666667 0.170666667,1.024 0.192,1.00266667 C0.213333333,0.970666667 0.256,0.96 0.298666667,0.96 L2.72,0.96 C2.77333333,0.96 2.82666667,0.970666667 2.86933333,0.981333333 C2.912,1.00266667 2.944,1.03466667 2.976,1.07733333 C3.17866667,1.536 3.41333333,1.99466667 3.65866667,2.45333333 C3.91466667,2.912 4.16,3.36 4.42666667,3.808 C4.68266667,4.256 4.91733333,4.704 5.14133333,5.16266667 L5.16266667,5.16266667 C5.38666667,4.69333333 5.62133333,4.23466667 5.856,3.78666667 C6.09066667,3.33866667 6.336,2.89066667 6.58133333,2.44266667 C6.82666667,1.99466667 7.06133333,1.536 7.296,1.09866667 C7.30666667,1.056 7.328,1.01333333 7.36,0.992 C7.40266667,0.970666667 7.44533333,0.96 7.49866667,0.970666667 L9.74933333,0.970666667 C9.80266667,0.96 9.856,0.992 9.86666667,1.04533333 C9.87733333,1.056 9.856,1.09866667 9.83466667,1.12 L9.83466667,1.12 Z" id="Path"></path>
                <path d="M14.7626667,12.3733333 C13.9733333,12.384 13.184,12.224 12.4693333,11.8933333 C11.7973333,11.584 11.2426667,11.072 10.8586667,10.4426667 C10.464,9.792 10.272,8.98133333 10.272,8.01066667 C10.2613333,7.22133333 10.464,6.44266667 10.8586667,5.76 C11.264,5.06666667 11.8506667,4.49066667 12.5546667,4.10666667 C13.3013333,3.69066667 14.1973333,3.488 15.2533333,3.488 C15.3066667,3.488 15.3813333,3.488 15.4773333,3.49866667 C15.5733333,3.50933333 15.68,3.50933333 15.808,3.52 L15.808,0.149333333 C15.808,0.0746666667 15.84,0.032 15.9146667,0.032 L18.08,0.032 C18.1333333,0.0213333333 18.176,0.064 18.1866667,0.106666667 C18.1866667,0.117333333 18.1866667,0.128 18.1866667,0.128 L18.1866667,10.2826667 C18.1866667,10.4746667 18.1973333,10.688 18.208,10.9226667 C18.2293333,11.1466667 18.24,11.36 18.2506667,11.5413333 C18.2506667,11.616 18.2186667,11.68 18.144,11.712 C17.5893333,11.9466667 17.0026667,12.1173333 16.4053333,12.224 C15.8613333,12.32 15.3173333,12.3733333 14.7626667,12.3733333 Z M15.808,10.24 L15.808,5.54666667 C15.712,5.52533333 15.616,5.504 15.52,5.49333333 C15.4026667,5.48266667 15.2853333,5.472 15.168,5.472 C14.752,5.472 14.336,5.55733333 13.9626667,5.74933333 C13.6,5.93066667 13.2906667,6.19733333 13.056,6.53866667 C12.8213333,6.88 12.704,7.33866667 12.704,7.89333333 C12.6933333,8.26666667 12.7573333,8.64 12.8853333,8.992 C12.992,9.28 13.152,9.536 13.3653333,9.74933333 C13.568,9.94133333 13.8133333,10.0906667 14.0906667,10.176 C14.3786667,10.272 14.6773333,10.3146667 14.976,10.3146667 C15.136,10.3146667 15.2853333,10.304 15.424,10.2933333 C15.5626667,10.304 15.68,10.2826667 15.808,10.24 Z" id="Shape"></path>
            </g>
        </g>
    </g>
</svg>