<?xml version="1.0" encoding="UTF-8"?>
<svg width="32px" height="32px" viewBox="0 0 32 32" version="1.1" xmlns="http://www.w3.org/2000/svg" xmlns:xlink="http://www.w3.org/1999/xlink">
    <title>Icon / Graphic  / icon-photoshop</title>
    <g id="Icon-/-Graphic--/-icon-photoshop" stroke="none" stroke-width="1" fill="none" fill-rule="evenodd">
        <circle id="Oval" fill="#001E36" fill-rule="nonzero" cx="16" cy="16" r="15.4666667"></circle>
        <g id="Outlined_Mnemonics_Logos" transform="translate(9.066667, 9.600000)" fill="#31A8FF" fill-rule="nonzero">
            <g id="Ps">
                <path d="M0,11.2106667 L0,0.234666667 C0,0.16 0.032,0.117333333 0.106666667,0.117333333 C0.288,0.117333333 0.458666667,0.117333333 0.704,0.106666667 C0.96,0.096 1.22666667,0.096 1.51466667,0.0853333333 C1.80266667,0.0746666667 2.112,0.0746666667 2.44266667,0.064 C2.77333333,0.0533333333 3.09333333,0.0533333333 3.41333333,0.0533333333 C4.288,0.0533333333 5.01333333,0.16 5.61066667,0.384 C6.144,0.565333333 6.63466667,0.864 7.04,1.25866667 C7.38133333,1.6 7.648,2.016 7.81866667,2.47466667 C7.97866667,2.92266667 8.064,3.38133333 8.064,3.86133333 C8.064,4.77866667 7.85066667,5.536 7.424,6.13333333 C6.99733333,6.73066667 6.4,7.17866667 5.70666667,7.43466667 C4.98133333,7.70133333 4.18133333,7.79733333 3.30666667,7.79733333 C3.05066667,7.79733333 2.88,7.79733333 2.77333333,7.78666667 C2.66666667,7.776 2.51733333,7.776 2.31466667,7.776 L2.31466667,11.2 C2.32533333,11.2746667 2.272,11.3386667 2.19733333,11.3493333 C2.18666667,11.3493333 2.176,11.3493333 2.15466667,11.3493333 L0.128,11.3493333 C0.0426666667,11.3493333 0,11.3066667 0,11.2106667 Z M2.32533333,2.176 L2.32533333,5.76 C2.47466667,5.77066667 2.61333333,5.78133333 2.74133333,5.78133333 L3.30666667,5.78133333 C3.72266667,5.78133333 4.13866667,5.71733333 4.53333333,5.58933333 C4.87466667,5.49333333 5.17333333,5.29066667 5.408,5.024 C5.632,4.75733333 5.73866667,4.39466667 5.73866667,3.92533333 C5.74933333,3.59466667 5.664,3.264 5.49333333,2.976 C5.312,2.69866667 5.056,2.48533333 4.74666667,2.368 C4.352,2.208 3.92533333,2.144 3.488,2.15466667 C3.21066667,2.15466667 2.96533333,2.15466667 2.76266667,2.16533333 C2.54933333,2.15466667 2.4,2.16533333 2.32533333,2.176 L2.32533333,2.176 Z" id="Shape"></path>
                <path d="M14.72,5.10933333 C14.4,4.93866667 14.0586667,4.82133333 13.696,4.74666667 C13.3013333,4.66133333 12.9066667,4.608 12.5013333,4.608 C12.288,4.59733333 12.064,4.62933333 11.8613333,4.68266667 C11.7226667,4.71466667 11.6053333,4.78933333 11.5306667,4.896 C11.4773333,4.98133333 11.4453333,5.088 11.4453333,5.184 C11.4453333,5.28 11.488,5.376 11.552,5.46133333 C11.648,5.57866667 11.776,5.67466667 11.9146667,5.74933333 C12.16,5.87733333 12.416,5.99466667 12.672,6.10133333 C13.248,6.29333333 13.8026667,6.56 14.3146667,6.88 C14.6666667,7.104 14.9546667,7.40266667 15.1573333,7.76533333 C15.328,8.10666667 15.4133333,8.48 15.4026667,8.864 C15.4133333,9.36533333 15.264,9.86666667 14.9866667,10.2826667 C14.688,10.7093333 14.272,11.04 13.792,11.232 C13.2693333,11.456 12.6293333,11.5733333 11.8613333,11.5733333 C11.3706667,11.5733333 10.8906667,11.5306667 10.4106667,11.4346667 C10.0373333,11.3706667 9.664,11.2533333 9.32266667,11.0933333 C9.248,11.0506667 9.19466667,10.976 9.20533333,10.8906667 L9.20533333,9.03466667 C9.20533333,9.00266667 9.216,8.96 9.248,8.93866667 C9.28,8.91733333 9.312,8.928 9.344,8.94933333 C9.76,9.19466667 10.1973333,9.36533333 10.6666667,9.472 C11.072,9.57866667 11.4986667,9.632 11.9253333,9.632 C12.3306667,9.632 12.6186667,9.57866667 12.8106667,9.48266667 C12.9813333,9.408 13.0986667,9.22666667 13.0986667,9.03466667 C13.0986667,8.88533333 13.0133333,8.74666667 12.8426667,8.608 C12.672,8.46933333 12.32,8.30933333 11.7973333,8.10666667 C11.2533333,7.91466667 10.752,7.65866667 10.2826667,7.33866667 C9.952,7.104 9.67466667,6.79466667 9.472,6.432 C9.30133333,6.09066667 9.216,5.71733333 9.22666667,5.344 C9.22666667,4.88533333 9.35466667,4.448 9.58933333,4.05333333 C9.856,3.62666667 10.2506667,3.28533333 10.7093333,3.072 C11.2106667,2.816 11.84,2.69866667 12.5973333,2.69866667 C13.0346667,2.69866667 13.4826667,2.73066667 13.92,2.79466667 C14.24,2.83733333 14.5493333,2.92266667 14.8373333,3.04 C14.88,3.05066667 14.9226667,3.09333333 14.944,3.136 C14.9546667,3.17866667 14.9653333,3.22133333 14.9653333,3.264 L14.9653333,5.00266667 C14.9653333,5.04533333 14.944,5.088 14.912,5.10933333 C14.816,5.13066667 14.7626667,5.13066667 14.72,5.10933333 Z" id="Path"></path>
            </g>
        </g>
    </g>
</svg>