<?xml version="1.0" encoding="UTF-8"?>
<svg width="32px" height="32px" viewBox="0 0 32 32" version="1.1" xmlns="http://www.w3.org/2000/svg" xmlns:xlink="http://www.w3.org/1999/xlink">
    <title>01-Icons/Graphic/icon-figma</title>
    <g id="01-Icons/Graphic/icon-figma" stroke="none" stroke-width="1" fill="none" fill-rule="evenodd">
        <circle id="Oval" fill="#1D2127" cx="16" cy="16" r="16"></circle>
        <g id="icon-figma" transform="translate(9.000000, 6.000000)" fill-rule="nonzero">
            <path d="M3.25,20 C5.0446552,19.999331 6.49934775,18.5073387 6.5,16.6666667 L6.5,13.3333333 L3.25,13.3333333 C1.45507456,13.3333333 0,14.8257175 0,16.6666667 C0,18.5076158 1.45507456,20 3.25,20 L3.25,20 Z" id="path0_fill" fill="#0ACF83"></path>
            <path d="M0,10 C0.000652246184,8.159328 1.4553448,6.66733564 3.25,6.66666667 L6.5,6.66666667 L6.5,13.3333333 L3.25,13.3333333 C1.4553448,13.3326644 0.000652246184,11.840672 0,10 Z" id="path1_fill" fill="#A259FF"></path>
            <path d="M0,3.33333333 C0.000652246184,1.49266134 1.4553448,0.000668970445 3.25,0 L6.5,0 L6.5,6.66666667 L3.25,6.66666667 C1.4553448,6.6659977 0.000652246184,5.17400533 0,3.33333333 Z" id="path1_fill-2" fill="#F24E1E"></path>
            <path d="M6.5,0 L9.75,0 C11.5449254,0 13,1.49238419 13,3.33333333 C13,5.17428248 11.5449254,6.66666667 9.75,6.66666667 L6.5,6.66666667 L6.5,0 Z" id="path2_fill" fill="#FF7262"></path>
            <path d="M13,10 C13,11.8409492 11.5449254,13.3333333 9.75,13.3333333 C7.95507456,13.3333333 6.5,11.8409492 6.5,10 C6.5,8.15905083 7.95507456,6.66666667 9.75,6.66666667 C11.5446552,6.66733564 12.9993478,8.159328 13,10 Z" id="path3_fill" fill="#1ABCFE"></path>
        </g>
    </g>
</svg>