<?xml version="1.0" encoding="utf-8"?>
<!-- Generator: Adobe Illustrator 26.1.0, SVG Export Plug-In . SVG Version: 6.00 Build 0)  -->
<svg version="1.1" id="레이어_1" xmlns="http://www.w3.org/2000/svg" xmlns:xlink="http://www.w3.org/1999/xlink" x="0px"
	 y="0px" viewBox="0 0 32 32" style="enable-background:new 0 0 32 32;" xml:space="preserve">
<style type="text/css">
	.st0{fill:#E65100;}
	.st1{fill:#FF6D00;}
	.st2{fill:#FFFFFF;}
	.st3{fill:#EEEEEE;}
</style>
<circle class="st0" cx="16" cy="16" r="16"/>
<path class="st1" d="M29.3,16c0,7.1-5.7,12.8-12.8,12.8c0-8.8,0.1-18.8,0-25.6C23.6,3.2,29.3,8.9,29.3,16z"/>
<g>
	<path class="st2" d="M16.5,16.8v-3.3h7.2l-0.6,9.6l-6.6,2.2v-3.5l3.4-1.2l0.3-3.8C20.1,16.8,16.5,16.8,16.5,16.8z M23.9,10.1
		l0.3-3.3h-7.7v3.3H23.9z"/>
	<path class="st3" d="M16.5,21.7v3.5l-6.6-2.2l-0.3-4.6h3.3l0.2,2.1L16.5,21.7z M12.4,10.1h4.1V6.8H8.9l0.6,10h7v-3.3h-3.8
		L12.4,10.1z"/>
</g>
</svg>
