<?xml version="1.0" encoding="UTF-8"?>
<svg width="32px" height="32px" viewBox="0 0 32 32" version="1.1" xmlns="http://www.w3.org/2000/svg" xmlns:xlink="http://www.w3.org/1999/xlink">
    <title>Icon / Graphic  / icon-illustrator</title>
    <g id="Icon-/-Graphic--/-icon-illustrator" stroke="none" stroke-width="1" fill="none" fill-rule="evenodd">
        <g id="icon-illustrator" transform="translate(0.533333, 0.533333)" fill="#330000" fill-rule="nonzero">
            <circle id="Oval" cx="15.4666667" cy="15.4666667" r="15.4666667"></circle>
        </g>
        <g id="Outlined_Mnemonics_Logos" transform="translate(8.533333, 9.066667)" fill="#FF9A00" fill-rule="nonzero">
            <g id="Ai">
                <path d="M7.17866667,9.536 L3.21066667,9.536 L2.4,12.0426667 C2.37866667,12.1386667 2.29333333,12.2026667 2.19733333,12.192 L0.192,12.192 C0.0746666667,12.192 0.0426666667,12.128 0.0746666667,12 L3.50933333,2.112 C3.54133333,2.00533333 3.57333333,1.888 3.616,1.76 C3.65866667,1.536 3.68,1.30133333 3.68,1.06666667 C3.66933333,1.01333333 3.712,0.96 3.76533333,0.949333333 C3.776,0.949333333 3.78666667,0.949333333 3.79733333,0.949333333 L6.528,0.949333333 C6.61333333,0.949333333 6.656,0.981333333 6.66666667,1.03466667 L10.56,12.0213333 C10.592,12.1386667 10.56,12.192 10.4533333,12.192 L8.224,12.192 C8.14933333,12.2026667 8.07466667,12.1493333 8.05333333,12.0746667 L7.17866667,9.536 Z M3.82933333,7.37066667 L6.53866667,7.37066667 C6.47466667,7.14666667 6.38933333,6.88 6.29333333,6.60266667 C6.19733333,6.31466667 6.10133333,6.00533333 6.00533333,5.68533333 C5.89866667,5.35466667 5.80266667,5.03466667 5.696,4.704 C5.58933333,4.37333333 5.49333333,4.064 5.408,3.75466667 C5.32266667,3.456 5.248,3.17866667 5.17333333,2.92266667 L5.152,2.92266667 C5.056,3.38133333 4.93866667,3.84 4.78933333,4.29866667 C4.62933333,4.81066667 4.46933333,5.344 4.29866667,5.87733333 C4.14933333,6.42133333 3.98933333,6.92266667 3.82933333,7.37066667 L3.82933333,7.37066667 Z" id="Shape"></path>
                <path d="M12.8853333,2.77333333 C12.5333333,2.784 12.192,2.64533333 11.936,2.4 C11.6906667,2.13333333 11.5626667,1.78133333 11.5733333,1.41866667 C11.5626667,1.056 11.7013333,0.714666667 11.9573333,0.469333333 C12.2133333,0.224 12.5546667,0.096 12.9066667,0.096 C13.3226667,0.096 13.6426667,0.224 13.8773333,0.469333333 C14.112,0.725333333 14.24,1.06666667 14.2293333,1.41866667 C14.24,1.78133333 14.112,2.13333333 13.856,2.4 C13.6106667,2.656 13.248,2.79466667 12.8853333,2.77333333 Z M11.6906667,12.032 L11.6906667,3.81866667 C11.6906667,3.712 11.7333333,3.66933333 11.8293333,3.66933333 L13.9413333,3.66933333 C14.0373333,3.66933333 14.08,3.72266667 14.08,3.81866667 L14.08,12.032 C14.08,12.1493333 14.0373333,12.2026667 13.9413333,12.2026667 L11.8506667,12.2026667 C11.744,12.2026667 11.6906667,12.1386667 11.6906667,12.032 Z" id="Shape"></path>
            </g>
        </g>
    </g>
</svg>