<?xml version="1.0" encoding="utf-8"?>
<!-- Generator: Adobe Illustrator 26.1.0, SVG Export Plug-In . SVG Version: 6.00 Build 0)  -->
<svg version="1.1" id="레이어_1" xmlns="http://www.w3.org/2000/svg" xmlns:xlink="http://www.w3.org/1999/xlink" x="0px"
	 y="0px" viewBox="0 0 32 32" style="enable-background:new 0 0 32 32;" xml:space="preserve">
<style type="text/css">
	.st0{fill:#0277BD;}
	.st1{fill:#039BE5;}
	.st2{fill:#FFFFFF;}
	.st3{fill:#EEEEEE;}
</style>
<circle class="st0" cx="16" cy="16" r="16"/>
<path class="st1" d="M29.3,16c0,7.1-5.7,12.8-12.8,12.8c0-8.8,0.1-18.8,0-25.6C23.6,3.2,29.3,8.9,29.3,16z"/>
<g>
	<path class="st2" d="M23.5,8.8h-7v3.1h3.7L20.1,15h-3.5V18h3.4l-0.2,3.4l-3.1,1.1v3.2l6-2l0.5-8.8l0,0L23.5,8.8z"/>
	<path class="st3" d="M16.5,8.8v3.1H9.7L9.5,8.8H16.5z M13,15l0.2,3.1h3.4V15H13z M13.3,19.6h-3.1l0.2,4.2l6,2v-3.2l-3.1-1.1
		L13.3,19.6z"/>
</g>
</svg>
