<?xml version="1.0" encoding="UTF-8"?><svg id="a" xmlns="http://www.w3.org/2000/svg" viewBox="0 0 32 32"><defs><style>.b{fill:#fff;}.c{fill:#325eef;}</style></defs><circle class="c" cx="16" cy="16" r="16"/><g><path class="b" d="M5.03,17.85v-2.95l6.27-5.37v2.72c-.77,.76-1.49,1.42-2.14,2.02-1.1,1.01-2.23,2.07-2.38,2.12,.14,0,1.28,1.08,2.38,2.12,.65,.63,1.37,1.33,2.14,2.12v2.63l-6.27-5.42Z"/><path class="b" d="M19.12,8.73l-3.73,13.13h-2.52l3.82-13.13h2.43Z"/><path class="b" d="M20.71,23.27v-2.63c.77-.79,1.5-1.5,2.14-2.12,1.08-1.04,2.23-2.12,2.38-2.12-.14-.05-1.3-1.13-2.38-2.12-.65-.59-1.37-1.26-2.14-2.02v-2.72l6.27,5.37v2.95l-6.27,5.42Z"/></g></svg>